<svg xmlns="http://www.w3.org/2000/svg" viewBox="0 0 24 24" width="24" height="24">
    <path d="M15.6 10.2h1.9a2.8 2.8 0 0 1 0 5.6h-1.9" fill="none" stroke="#EDE9DF" stroke-width="1.5" stroke-linecap="round"/>
    <path d="M5 8.2h10.6v10.6a2 2 0 0 1-2 2H7a2 2 0 0 1-2-2Z" fill="#F9C23C"/>
    <path d="M10.3 8.2h5.3v10.6a2 2 0 0 1-2 2h-3.3Z" fill="#CF9A1F"/>
    <path d="M5 8.2h10.6v3.2H5Z" fill="#1C3633"/>
    <path d="M5 8.2h10.6v10.6a2 2 0 0 1-2 2H7a2 2 0 0 1-2-2ZM5 11.4h10.6" fill="none" stroke="#EDE9DF" stroke-width="1.5" stroke-linejoin="round"/>
    <path d="M5.4 8.2a2.2 2.2 0 0 1 4-1.3 2.4 2.4 0 0 1 4 .4 2 2 0 0 1 1.8.9" fill="#1C3633" stroke="#EDE9DF" stroke-width="1.5" stroke-linejoin="round"/>
  </svg>
